<svg id="Ebene_1" data-name="Ebene 1" xmlns="http://www.w3.org/2000/svg" viewBox="0 0 880 880"><defs><style>.cls-1{fill:#ff0218;}.cls-2{fill:#fff;}</style></defs><title>icon_traffic-event_accident</title><path class="cls-1" d="M440,865A425.12,425.12,0,0,1,274.58,48.39,425.11,425.11,0,0,1,605.42,831.61,422.32,422.32,0,0,1,440,865Z"/><path class="cls-2" d="M440,30A410.12,410.12,0,0,1,599.58,817.79,410.11,410.11,0,0,1,280.42,62.21,407.41,407.41,0,0,1,440,30m0-30C197,0,0,197,0,440S197,880,440,880,880,683,880,440,683,0,440,0h0Z"/><g id="Accident"><path class="cls-2" d="M360.42,432.32l-32.53-57.5c-6.16-10.89-17.15-19.64-35.23-16.94l-33.23,5-56.59,8.46-33.64,5c-18.08,2.7-26.16,14.3-28.86,26.52L125.6,467.26c-9.14,2.59-24.32,16.19-21.23,36.91l11.36,76,23.74-3.55,3.91,26.2c4.28,28.66,46.86,22.29,42.57-6.36l-3.91-26.2,77.51-11.58h0l77.21-11.54,3.91,26.2C345,602,387.56,595.64,383.28,567l-3.91-26.2,22.92-3.43-11.36-76C387.83,440.63,369.92,432.12,360.42,432.32ZM154.66,528c-11,1.64-21.22-6.21-22.91-17.51s5.83-21.78,16.79-23.42,21.22,6.18,22.91,17.49S165.63,526.38,154.66,528Zm88.5-79h-0.05l-93,13.89,10.74-49.37c1.21-7,4-11.41,11.7-12.57l62-9.26h0.08l62-9.26c7.75-1.16,11.65,2.22,14.87,8.6l24.7,44.08-93,13.89h0Zm107.77,49.71c-11,1.64-21.25-6.2-22.94-17.51s5.85-21.78,16.82-23.42,21.22,6.18,22.91,17.49S361.9,497.05,350.93,498.69Z"/><path class="cls-2" d="M489.07,461.35l-11.36,76,22.92,3.43L496.72,567c-4.28,28.66,38.29,35,42.57,6.36l3.91-26.2,77.21,11.54h0l77.51,11.58L694,596.47c-4.28,28.66,38.29,35,42.57,6.36l3.91-26.2,23.74,3.55,11.36-76c3.1-20.72-12.09-34.32-21.23-36.91l-14.73-64.41C737,390.63,728.88,379,710.8,376.33l-33.64-5-56.59-8.46-33.23-5c-18.08-2.7-29.08,6-35.23,16.94l-32.53,57.5C510.08,432.12,492.17,440.63,489.07,461.35Zm219.48,43.22c1.69-11.3,11.94-19.12,22.91-17.49s18.48,12.12,16.79,23.42S736.3,529.66,725.34,528,706.86,515.88,708.55,504.58ZM636.81,449l-93-13.89L568.53,391c3.22-6.38,7.12-9.76,14.87-8.6l62,9.26h0.08l62,9.26c7.75,1.16,10.49,5.53,11.7,12.57l10.74,49.37-93-13.89h-0.08ZM512.28,475.25c1.69-11.3,11.94-19.12,22.91-17.49s18.51,12.12,16.82,23.42-12,19.15-22.94,17.51S510.59,486.55,512.28,475.25Z"/><polygon class="cls-2" points="438.77 417.9 487.95 114 390 114 438.77 417.9"/><polyline class="cls-2" points="530.28 169.65 486.47 382.89 595.08 194.16"/><polyline class="cls-2" points="281.45 196.43 395.7 381.75 345.45 169.88"/></g></svg>