<svg id="Ebene_1" data-name="Ebene 1" xmlns="http://www.w3.org/2000/svg" viewBox="0 0 880 880"><defs><style>.cls-1{fill:#ff0218;}.cls-2{fill:#fff;}</style></defs><title>icon_traffic-event_trafficjam</title><path class="cls-1" d="M440,865A425.12,425.12,0,0,1,274.58,48.39,425.11,425.11,0,0,1,605.42,831.61,422.32,422.32,0,0,1,440,865Z"/><path class="cls-2" d="M440,30A410.12,410.12,0,0,1,599.58,817.79,410.11,410.11,0,0,1,280.42,62.21,407.41,407.41,0,0,1,440,30m0-30C197,0,0,197,0,440S197,880,440,880,880,683,880,440,683,0,440,0h0Z"/><g id="Jam"><path class="cls-2" d="M525.82,428.93l-34.78-90C484.49,321.84,470.32,307,443.58,307H261c-26.74,0-40.93,14.84-47.47,31.93L178.5,428.81c-13.78,1.77-38.5,18.06-38.5,48.71V592h35v38c0,43,63,43,63,0V592H468v38c0,43,62,43,62,0V592h34V477.51C564,446.87,539.6,430.7,525.82,428.93ZM207.21,522.88c-16.21,0-29.35-13.57-29.35-30.28s13.14-30.24,29.35-30.24,29.35,13.53,29.35,30.24S223.43,522.88,207.21,522.88ZM352.3,429H214.77L241,358.78c3.27-9.92,8.18-16.78,19.64-16.78H444c11.46,0,16.37,6.86,19.64,16.78L489.83,429H352.3Zm145.13,93.88c-16.21,0-29.39-13.57-29.39-30.28s13.17-30.24,29.39-30.24,29.35,13.53,29.35,30.24S513.65,522.88,497.43,522.88Z"/><path class="cls-2" d="M726.7,316.15L691.86,227c-6.55-17.09-20.78-31-47.52-31H461.78c-26.74,0-40.93,13.9-47.47,31L398,269h35.23l8.49-22.88C445,236.2,449.91,229,461.37,229H644.74c11.46,0,16.37,7.36,19.64,17.28L690.59,317H536.21l28.45,73.36C578.44,392.13,603,408.2,603,438.85V481h66v37c0,42,62,42,62,0V481h34V364.74C765,334.09,740.48,317.92,726.7,316.15ZM698.19,410.1c-16.21,0-29.39-13.56-29.39-30.28s13.17-30.24,29.39-30.24,29.35,13.53,29.35,30.24S714.4,410.1,698.19,410.1Z"/></g></svg>