<svg id="Ebene_1" data-name="Ebene 1" xmlns="http://www.w3.org/2000/svg" viewBox="0 0 880 880"><defs><style>.cls-1{fill:#ff0218;}.cls-2{fill:#fff;}</style></defs><title>icon_traffic-event_replacement</title><path class="cls-1" d="M440,865A425.12,425.12,0,0,1,274.58,48.39,425.11,425.11,0,0,1,605.42,831.61,422.32,422.32,0,0,1,440,865Z"/><path class="cls-2" d="M440,30A410.12,410.12,0,0,1,599.58,817.79,410.11,410.11,0,0,1,280.42,62.21,407.41,407.41,0,0,1,440,30m0-30C197,0,0,197,0,440S197,880,440,880,880,683,880,440,683,0,440,0h0Z"/><g id="Replacement"><path class="cls-2" d="M143.84,301.77h19.75V420.23H143.84a19.71,19.71,0,0,1-19.75-19.74v-79A19.77,19.77,0,0,1,143.84,301.77Zm592.32,0H716.4V420.23h19.77a19.72,19.72,0,0,0,19.75-19.74v-79A19.76,19.76,0,0,0,736.16,301.77ZM676.93,262.3V617.69a39.46,39.46,0,0,1-39.49,39.49v39.49A39.45,39.45,0,0,1,598,736.16h-39.5A39.48,39.48,0,0,1,519,696.67V657.18H361v39.49a39.46,39.46,0,0,1-39.49,39.49H282.07a39.48,39.48,0,0,1-39.49-39.49V657.18a39.48,39.48,0,0,1-39.49-39.49V262.3A118.47,118.47,0,0,1,321.54,143.84H558.47A118.48,118.48,0,0,1,676.93,262.3ZM361,222.82H519V183.33H361v39.49Zm-39.49,355.4a39.48,39.48,0,1,0-39.47,39.49A39.44,39.44,0,0,0,321.54,578.22Zm315.9,0A39.49,39.49,0,1,0,598,617.71,39.44,39.44,0,0,0,637.44,578.22Zm0-315.92H242.56V499.23H637.44V262.3h0Z"/></g></svg>