<svg id="Ebene_1" data-name="Ebene 1" xmlns="http://www.w3.org/2000/svg" viewBox="0 0 880 880"><defs><style>.cls-1{fill:#ff0218;}.cls-2{fill:#fff;}</style></defs><title>icon_traffic-event_weather</title><path class="cls-1" d="M440,865A425.12,425.12,0,0,1,274.58,48.39,425.11,425.11,0,0,1,605.42,831.61,422.32,422.32,0,0,1,440,865Z"/><path class="cls-2" d="M440,30A410.12,410.12,0,0,1,599.58,817.79,410.11,410.11,0,0,1,280.42,62.21,407.41,407.41,0,0,1,440,30m0-30C197,0,0,197,0,440S197,880,440,880,880,683,880,440,683,0,440,0h0Z"/><g id="Weather"><path class="cls-2" d="M506.25,625.36H444.16a58.64,58.64,0,0,0-55.07-78.14H350a19.54,19.54,0,1,0,0,39.07h38.92a19.54,19.54,0,0,1,0,39.07H193.39a19.54,19.54,0,0,0,0,39.07H506.15a19.54,19.54,0,1,1-.23,39.07H467.23a19.54,19.54,0,1,0,0,39.07H506.3A58.61,58.61,0,0,0,506.25,625.36Z"/><path class="cls-2" d="M673.85,277.85a127.16,127.16,0,0,0-155-77.09,175.63,175.63,0,0,0-149.53-83.34c-95.81,0-173.76,76.64-175.79,172a117.21,117.21,0,0,0,58.57,218.75H642.86A117.23,117.23,0,0,0,673.85,277.85Z"/><path class="cls-2" d="M662.59,547.22H506a19.54,19.54,0,0,0,0,39.07H662.44a19.54,19.54,0,1,1-.23,39.07H623.52a19.54,19.54,0,1,0,0,39.07h39.07A58.61,58.61,0,0,0,662.59,547.22Z"/></g></svg>