<svg id="Ebene_1" data-name="Ebene 1" xmlns="http://www.w3.org/2000/svg" viewBox="0 0 880 880"><defs><style>.cls-1{fill:#ff0218;}.cls-2{fill:#fff;}</style></defs><title>icon_traffic-event_roadblock</title><path class="cls-1" d="M440,865A425.12,425.12,0,0,1,274.58,48.39,425.11,425.11,0,0,1,605.42,831.61,422.32,422.32,0,0,1,440,865Z"/><path class="cls-2" d="M440,30A410.12,410.12,0,0,1,599.58,817.79,410.11,410.11,0,0,1,280.42,62.21,407.41,407.41,0,0,1,440,30m0-30C197,0,0,197,0,440S197,880,440,880,880,683,880,440,683,0,440,0h0Z"/><g id="Block"><path class="cls-2" d="M716.35,248.53H163.65A14.63,14.63,0,0,0,149,263.16V464.45a14.63,14.63,0,0,0,14.63,14.63h98.21V616.74H189.36a14.63,14.63,0,0,0-14.63,14.63v20A14.63,14.63,0,0,0,189.36,666H363.6a14.63,14.63,0,0,0,14.63-14.63v-20a14.63,14.63,0,0,0-14.63-14.63H291.12V479.08H595V616.74H522.55a14.63,14.63,0,0,0-14.63,14.63v20A14.63,14.63,0,0,0,522.55,666H696.79a14.63,14.63,0,0,0,14.63-14.63v-20a14.63,14.63,0,0,0-14.63-14.63H624.3V479.08h92.05A14.63,14.63,0,0,0,731,464.45V263.16A14.63,14.63,0,0,0,716.35,248.53Zm-518,201.29H178.28V388.08L303.67,277.79h80.88Zm108.25,0,186.9-172h79.94l-186.9,172H306.58ZM701.72,339.52L576.33,449.82H495.45l186.22-172h20.05v61.73h0Z"/></g></svg>