<svg id="Ebene_1" data-name="Ebene 1" xmlns="http://www.w3.org/2000/svg" viewBox="0 0 880 880"><defs><style>.cls-1{fill:#ff0218;}.cls-2{fill:#fff;}</style></defs><title>icon_traffic-event_delay</title><path class="cls-1" d="M440,865A425.12,425.12,0,0,1,274.58,48.39,425.11,425.11,0,0,1,605.42,831.61,422.32,422.32,0,0,1,440,865Z"/><path class="cls-2" d="M440,30A410.12,410.12,0,0,1,599.58,817.79,410.11,410.11,0,0,1,280.42,62.21,407.41,407.41,0,0,1,440,30m0-30C197,0,0,197,0,440S197,880,440,880,880,683,880,440,683,0,440,0h0Z"/><g id="Delay"><g id="Layer_8" data-name="Layer 8"><path class="cls-2" d="M675.91,258.76l20.28-20.28a15.24,15.24,0,0,0,17.21-3l3.61-3.61a15.33,15.33,0,0,0,0-21.65l-26-26a15.3,15.3,0,0,0-21.65,0l-3.6,3.61a15.31,15.31,0,0,0,0,21.65l0.8,0.79L647.8,229.05a305.17,305.17,0,0,0-180-80V130.36h2.72A25.43,25.43,0,0,0,496,104.93V96.44A25.44,25.44,0,0,0,470.54,71H409.46A25.44,25.44,0,0,0,384,96.44v8.49a25.44,25.44,0,0,0,25.44,25.44h2.71V149c-149.85,13.4-269.9,135.3-278.35,288.48C124.5,606.31,254.26,751.24,423.1,760.56c5.75,0.32,11.45.47,17.14,0.47,162.6,0,297-127.27,305.94-289.76A305.46,305.46,0,0,0,675.91,258.76ZM705.37,469c-8,145.75-132.58,258.78-280,250.72C279,711.65,166.58,586,174.65,439.71c7.77-140.8,124.22-251.11,265.12-251.11,4.95,0,9.88.14,14.89,0.41C601,197.09,713.44,322.71,705.37,469ZM676.3,451.73H659.77c0-.48.15-0.89,0.15-1.36A34.43,34.43,0,0,0,625.56,416H492.28a69.63,69.63,0,0,0-60-34.79c-0.39,0-.78.06-1.17,0.06V206.57C566.55,206.57,676.3,316.33,676.3,451.73ZM640,446.55a13.94,13.94,0,0,1-13.92,13.92H479.47a48.69,48.69,0,1,1,0-27.82H626.06A13.93,13.93,0,0,1,640,446.55Z"/></g></g></svg>